<svg width="40" height="40" viewBox="0 0 40 40" fill="none" xmlns="http://www.w3.org/2000/svg">
<g clip-path="url(#clip0_2766_3033)">
<path d="M24 20C23.2976 20.0008 22.6074 19.8164 21.9989 19.4655C21.3905 19.1145 20.8854 18.6093 20.5344 18.0009C20.1835 17.3924 19.9991 16.7022 20 15.9998C20.0009 15.2974 20.1869 14.6076 20.5393 14H14.828L14.8 13.7653C14.7425 13.2791 14.5087 12.8308 14.1428 12.5054C13.7769 12.18 13.3043 12.0002 12.8147 12H12.6667C12.4899 12 12.3203 12.0702 12.1953 12.1953C12.0702 12.3203 12 12.4899 12 12.6667C12 12.8435 12.0702 13.013 12.1953 13.1381C12.3203 13.2631 12.4899 13.3333 12.6667 13.3333H12.8147C12.978 13.3334 13.1356 13.3933 13.2576 13.5018C13.3796 13.6103 13.4576 13.7598 13.4767 13.922L14.394 21.722C14.4892 22.5332 14.879 23.2812 15.4893 23.824C16.0996 24.3668 16.8879 24.6667 17.7047 24.6667H24.6667C24.8435 24.6667 25.013 24.5964 25.1381 24.4714C25.2631 24.3464 25.3333 24.1768 25.3333 24C25.3333 23.8232 25.2631 23.6536 25.1381 23.5286C25.013 23.4036 24.8435 23.3333 24.6667 23.3333H17.7047C17.2919 23.3323 16.8896 23.2036 16.5529 22.9649C16.2162 22.7262 15.9616 22.3891 15.824 22H23.7713C24.5529 22 25.3096 21.7255 25.9092 21.2243C26.5089 20.7231 26.9134 20.0271 27.052 19.258L27.2107 18.3787C26.8398 18.8814 26.3561 19.2901 25.7984 19.5717C25.2408 19.8533 24.6247 20 24 20Z" fill="#727A90"/>
<path d="M16.6666 28.0004C17.403 28.0004 17.9999 27.4034 17.9999 26.6671C17.9999 25.9307 17.403 25.3337 16.6666 25.3337C15.9302 25.3337 15.3333 25.9307 15.3333 26.6671C15.3333 27.4034 15.9302 28.0004 16.6666 28.0004Z" fill="#727A90"/>
<path d="M23.3333 28.0004C24.0697 28.0004 24.6667 27.4034 24.6667 26.6671C24.6667 25.9307 24.0697 25.3337 23.3333 25.3337C22.597 25.3337 22 25.9307 22 26.6671C22 27.4034 22.597 28.0004 23.3333 28.0004Z" fill="#727A90"/>
<path d="M22.4887 17.9639C22.6034 18.0877 22.742 18.187 22.8961 18.2558C23.0502 18.3245 23.2167 18.3613 23.3854 18.3639H23.4074C23.5728 18.3644 23.7366 18.3321 23.8894 18.2688C24.0422 18.2055 24.1809 18.1125 24.2974 17.9952L27.1454 15.1472C27.271 15.0219 27.3417 14.8517 27.3419 14.6743C27.3421 14.4968 27.2718 14.3265 27.1464 14.2009C27.021 14.0753 26.8509 14.0046 26.6734 14.0044C26.496 14.0042 26.3257 14.0745 26.2001 14.1999L23.4087 16.9959L22.5861 16.1132C22.4653 15.9839 22.2981 15.9078 22.1213 15.9018C21.9444 15.8957 21.7724 15.9601 21.6431 16.0809C21.5137 16.2016 21.4377 16.3688 21.4316 16.5457C21.4255 16.7225 21.49 16.8945 21.6107 17.0239L22.4887 17.9639Z" fill="#727A90"/>
</g>
<defs>
<clipPath id="clip0_2766_3033">
<rect width="16" height="16" fill="white" transform="translate(12 12)"/>
</clipPath>
</defs>
</svg>
