<svg width="16" height="16" viewBox="0 0 16 16" fill="none" xmlns="http://www.w3.org/2000/svg">
<g clip-path="url(#clip0_2766_3008)">
<path d="M10.5016 2.55431C10.5344 2.55413 10.5344 2.55413 10.5678 2.55395C10.6407 2.55363 10.7136 2.55375 10.7866 2.55388C10.8389 2.55374 10.8913 2.55358 10.9437 2.55339C11.0858 2.55297 11.2279 2.55296 11.37 2.55304C11.4886 2.55307 11.6073 2.55292 11.726 2.55277C12.0059 2.55242 12.2859 2.55241 12.5658 2.55259C12.8546 2.55278 13.1433 2.5524 13.4321 2.55173C13.6801 2.55118 13.9281 2.551 14.1761 2.5511C14.3242 2.55115 14.4722 2.55107 14.6203 2.55064C14.7596 2.55024 14.8988 2.5503 15.0381 2.55071C15.0891 2.55079 15.1402 2.5507 15.1913 2.55044C15.2611 2.55012 15.3308 2.55037 15.4006 2.55077C15.4592 2.55076 15.4592 2.55076 15.5189 2.55075C15.7167 2.57258 15.8399 2.66525 15.9688 2.81246C16.0052 2.92188 16.0043 3.0081 16.0048 3.12363C16.0049 3.14588 16.0051 3.16814 16.0052 3.19107C16.0056 3.26585 16.0058 3.34062 16.006 3.4154C16.0063 3.46893 16.0065 3.52247 16.0068 3.57601C16.0076 3.75199 16.0081 3.92798 16.0085 4.10396C16.0087 4.16454 16.0089 4.22513 16.009 4.28571C16.0097 4.5377 16.0103 4.78969 16.0107 5.04168C16.0112 5.40284 16.0122 5.76398 16.014 6.12512C16.0152 6.37905 16.0158 6.63298 16.016 6.88692C16.0161 7.03858 16.0165 7.19024 16.0175 7.34191C16.0184 7.48463 16.0186 7.62733 16.0182 7.77005C16.0182 7.82237 16.0185 7.87468 16.019 7.927C16.0235 8.37143 16.0235 8.37143 15.926 8.51344C15.7463 8.68878 15.5903 8.7018 15.3506 8.70101C15.3215 8.70117 15.2924 8.70134 15.2624 8.70151C15.201 8.70171 15.1396 8.70167 15.0783 8.7014C14.9847 8.70113 14.8911 8.70203 14.7975 8.70302C14.7377 8.70307 14.6779 8.70306 14.6182 8.70296C14.5764 8.70349 14.5764 8.70349 14.5338 8.70403C14.3611 8.7021 14.262 8.67759 14.125 8.56246C13.9867 8.40921 13.9649 8.30449 13.9623 8.10101C13.962 8.07966 13.9617 8.05831 13.9614 8.03631C13.9604 7.96581 13.9596 7.8953 13.9589 7.82479C13.9582 7.77588 13.9576 7.72697 13.9569 7.67806C13.9552 7.54937 13.9536 7.42067 13.9521 7.29198C13.9505 7.16064 13.9488 7.02931 13.9471 6.89797C13.9437 6.6403 13.9406 6.38263 13.9375 6.12496C13.9115 6.15104 13.8856 6.17712 13.8588 6.20399C13.2418 6.82372 12.6245 7.44312 12.0067 8.06213C11.9306 8.1384 11.8545 8.21467 11.7784 8.29094C11.7632 8.30613 11.7481 8.32131 11.7325 8.33696C11.4875 8.58249 11.2427 8.82823 10.998 9.07406C10.7468 9.3265 10.4953 9.5787 10.2435 9.83068C10.1022 9.97214 9.96106 10.1137 9.82013 10.2555C9.68739 10.3891 9.55435 10.5224 9.42108 10.6555C9.37232 10.7043 9.32367 10.7532 9.27513 10.8022C8.62986 11.4536 8.62986 11.4536 8.13586 11.4718C7.65594 11.4545 7.35996 11.136 7.04639 10.8147C7.00423 10.7721 6.96202 10.7297 6.91978 10.6872C6.80963 10.5764 6.70005 10.465 6.59059 10.3534C6.47842 10.2393 6.36571 10.1258 6.25305 10.0122C6.03275 9.78987 5.81306 9.56698 5.59375 9.34371C5.38592 9.51438 5.19825 9.70422 5.0089 9.89475C4.97224 9.93153 4.93556 9.9683 4.89888 10.0051C4.82025 10.0839 4.74167 10.1628 4.66312 10.2417C4.53884 10.3666 4.41442 10.4913 4.28998 10.616C3.93625 10.9704 3.58271 11.3251 3.2293 11.6799C3.03386 11.8761 2.8383 12.0722 2.64262 12.2682C2.51895 12.3921 2.39543 12.5161 2.27201 12.6402C2.19518 12.7174 2.11821 12.7945 2.04121 12.8715C2.00561 12.9072 1.97006 12.9429 1.93457 12.9787C1.886 13.0276 1.83725 13.0764 1.78844 13.1251C1.76124 13.1524 1.73405 13.1797 1.70603 13.2078C1.53276 13.3648 1.39748 13.4384 1.16345 13.4477C0.962882 13.4182 0.833222 13.2842 0.697632 13.1464C0.67855 13.1274 0.659468 13.1083 0.639808 13.0887C0.599753 13.0485 0.559812 13.0083 0.519981 12.9679C0.458908 12.9061 0.397426 12.8447 0.335877 12.7834C0.296932 12.7443 0.258011 12.7051 0.219116 12.666C0.200726 12.6476 0.182337 12.6293 0.163389 12.6103C0.029317 12.4739 -0.00569486 12.386 -0.0136719 12.1972C-0.0155652 12.1662 -0.0174585 12.1351 -0.0194092 12.1031C0.0231264 11.8771 0.227173 11.7011 0.3859 11.5432C0.404982 11.524 0.424064 11.5048 0.443724 11.485C0.507044 11.4212 0.570582 11.3577 0.634125 11.2943C0.679839 11.2484 0.725542 11.2024 0.771233 11.1565C0.894924 11.0323 1.01882 10.9082 1.14276 10.7842C1.22029 10.7067 1.29776 10.6291 1.37523 10.5514C1.64572 10.2804 1.91638 10.0094 2.1872 9.73868C2.43923 9.48669 2.69091 9.23435 2.94243 8.98184C3.15877 8.76468 3.37536 8.54776 3.59213 8.33103C3.72143 8.20174 3.85063 8.07237 3.97959 7.94275C4.10089 7.82084 4.22249 7.69923 4.34433 7.57785C4.38885 7.53339 4.43327 7.48882 4.47757 7.44414C4.81155 7.1075 5.09499 6.83174 5.59375 6.81246C6.07648 6.83311 6.37328 7.16823 6.69067 7.49093C6.73224 7.53272 6.77383 7.57449 6.81545 7.61624C6.92412 7.72539 7.03242 7.83491 7.14064 7.94451C7.25145 8.05661 7.36262 8.16834 7.47376 8.28011C7.69119 8.49888 7.90822 8.71804 8.125 8.93746C8.34557 8.75717 8.5435 8.55437 8.74438 8.35288C8.78473 8.31251 8.8251 8.27215 8.86547 8.2318C8.97458 8.1227 9.08359 8.01351 9.19258 7.9043C9.30667 7.79001 9.42086 7.67581 9.53503 7.5616C9.75101 7.34552 9.96692 7.12936 10.1828 6.91317C10.4286 6.66696 10.6746 6.42085 10.9205 6.17474C11.4263 5.66866 11.9319 5.16247 12.4375 4.65621C12.3983 4.65593 12.3983 4.65593 12.3583 4.65565C12.1114 4.65384 11.8645 4.65159 11.6176 4.64884C11.4907 4.64745 11.3638 4.64622 11.2369 4.64538C11.1143 4.64457 10.9917 4.6433 10.8691 4.64174C10.8225 4.64122 10.7758 4.64086 10.7292 4.64066C10.6636 4.64036 10.598 4.63948 10.5324 4.63847C10.4951 4.63812 10.4579 4.63778 10.4195 4.63742C10.2481 4.61745 10.0995 4.56171 9.98828 4.42379C9.96568 4.39678 9.96568 4.39678 9.94263 4.36922C9.85607 4.23415 9.86949 4.07845 9.86865 3.92318C9.86847 3.89752 9.8683 3.87185 9.86811 3.84541C9.86782 3.79117 9.86761 3.73693 9.86749 3.68269C9.86719 3.60018 9.86622 3.5177 9.86523 3.4352C9.86503 3.38237 9.86487 3.32953 9.86475 3.27669C9.86436 3.25224 9.86397 3.22779 9.86358 3.20259C9.8644 2.99774 9.90784 2.85333 10.043 2.69332C10.1902 2.57059 10.3124 2.55462 10.5016 2.55431Z" fill="#727A90"/>
</g>
<defs>
<clipPath id="clip0_2766_3008">
<rect width="16" height="16" fill="white"/>
</clipPath>
</defs>
</svg>
