<svg width="40" height="40" viewBox="0 0 40 40" fill="none" xmlns="http://www.w3.org/2000/svg">
<path d="M22.6667 12.2C23.1372 12.3613 23.5653 12.6265 23.9193 12.976L25.0233 14.0813C25.3732 14.4349 25.6387 14.8628 25.8 15.3333H22.6667V12.2ZM26 16.6667V24.6667C25.9989 25.5504 25.6474 26.3976 25.0225 27.0225C24.3976 27.6474 23.5504 27.9989 22.6667 28H17.3333C16.4496 27.9989 15.6024 27.6474 14.9775 27.0225C14.3526 26.3976 14.0011 25.5504 14 24.6667V15.3333C14.0011 14.4496 14.3526 13.6024 14.9775 12.9775C15.6024 12.3526 16.4496 12.0011 17.3333 12H21.3333V15.3333C21.3333 15.687 21.4738 16.0261 21.7239 16.2761C21.9739 16.5262 22.313 16.6667 22.6667 16.6667H26ZM23.2053 23.6087C23.1539 23.5375 23.0889 23.4772 23.0141 23.4312C22.9393 23.3852 22.8561 23.3545 22.7694 23.3407C22.6827 23.327 22.5941 23.3305 22.5087 23.3511C22.4234 23.3717 22.3429 23.4089 22.272 23.4607C21.8241 23.7725 21.3009 23.9587 20.7567 24C20.5434 23.9942 20.3393 23.9126 20.1807 23.77C19.8327 23.4939 19.4034 23.3404 18.9593 23.3333C18.2198 23.4029 17.5154 23.6818 16.9287 24.1373C16.8559 24.1892 16.7942 24.2553 16.7475 24.3315C16.7007 24.4077 16.6697 24.4925 16.6564 24.581C16.6431 24.6694 16.6477 24.7596 16.67 24.8462C16.6922 24.9328 16.7317 25.014 16.786 25.0851C16.8403 25.1561 16.9084 25.2155 16.9861 25.2597C17.0638 25.3039 17.1497 25.332 17.2385 25.3424C17.3273 25.3527 17.4173 25.3451 17.5031 25.32C17.5889 25.2948 17.6688 25.2527 17.738 25.196C18.0931 24.9179 18.5136 24.7356 18.9593 24.6667C19.1233 24.6667 19.2067 24.7187 19.426 24.8667C19.8059 25.1667 20.2753 25.331 20.7593 25.3333C21.5879 25.2955 22.3879 25.0193 23.0633 24.538C23.205 24.4333 23.2994 24.2768 23.326 24.1026C23.3526 23.9285 23.3092 23.7509 23.2053 23.6087ZM23.3333 21.3333C23.3333 21.1565 23.2631 20.987 23.1381 20.8619C23.013 20.7369 22.8435 20.6667 22.6667 20.6667H17.3333C17.1565 20.6667 16.987 20.7369 16.8619 20.8619C16.7369 20.987 16.6667 21.1565 16.6667 21.3333C16.6667 21.5101 16.7369 21.6797 16.8619 21.8047C16.987 21.9298 17.1565 22 17.3333 22H22.6667C22.8435 22 23.013 21.9298 23.1381 21.8047C23.2631 21.6797 23.3333 21.5101 23.3333 21.3333ZM23.3333 18.6667C23.3333 18.4899 23.2631 18.3203 23.1381 18.1953C23.013 18.0702 22.8435 18 22.6667 18H17.3333C17.1565 18 16.987 18.0702 16.8619 18.1953C16.7369 18.3203 16.6667 18.4899 16.6667 18.6667C16.6667 18.8435 16.7369 19.013 16.8619 19.1381C16.987 19.2631 17.1565 19.3333 17.3333 19.3333H22.6667C22.8435 19.3333 23.013 19.2631 23.1381 19.1381C23.2631 19.013 23.3333 18.8435 23.3333 18.6667Z" fill="#727A90"/>
</svg>
