<svg width="40" height="40" viewBox="0 0 40 40" fill="none" xmlns="http://www.w3.org/2000/svg">
<g clip-path="url(#clip0_2766_3040)">
<path d="M12.218 20.0001C12.2373 19.9381 12.246 19.8734 12.268 19.8121L14.0667 14.8607C14.3016 14.2183 14.728 13.6634 15.2883 13.271C15.8487 12.8787 16.5159 12.6677 17.2 12.6667H22.8C23.4842 12.6677 24.1515 12.8787 24.7119 13.2712C25.2723 13.6637 25.6986 14.2188 25.9333 14.8614L27.7333 19.8121C27.7553 19.8734 27.764 19.9381 27.7833 20.0001H12.218ZM25.3333 21.3334V22.6667C25.3333 22.8436 25.2631 23.0131 25.1381 23.1382C25.013 23.2632 24.8435 23.3334 24.6667 23.3334C24.4899 23.3334 24.3203 23.2632 24.1953 23.1382C24.0702 23.0131 24 22.8436 24 22.6667V21.3334H16V22.6667C16 22.8436 15.9298 23.0131 15.8047 23.1382C15.6797 23.2632 15.5101 23.3334 15.3333 23.3334C15.1565 23.3334 14.987 23.2632 14.8619 23.1382C14.7369 23.0131 14.6667 22.8436 14.6667 22.6667V21.3334H12V22.6667C12.0009 23.3146 12.1905 23.9481 12.5457 24.4899C12.9009 25.0317 13.4062 25.4583 14 25.7174V26.6667C14 27.0204 14.1405 27.3595 14.3905 27.6096C14.6406 27.8596 14.9797 28.0001 15.3333 28.0001C15.687 28.0001 16.0261 27.8596 16.2761 27.6096C16.5262 27.3595 16.6667 27.0204 16.6667 26.6667V26.0001H23.3333V26.6667C23.3333 27.0204 23.4738 27.3595 23.7239 27.6096C23.9739 27.8596 24.313 28.0001 24.6667 28.0001C25.0203 28.0001 25.3594 27.8596 25.6095 27.6096C25.8595 27.3595 26 27.0204 26 26.6667V25.7174C26.5938 25.4583 27.0991 25.0317 27.4543 24.4899C27.8095 23.9481 27.9991 23.3146 28 22.6667V21.3334H25.3333Z" fill="#727A90"/>
</g>
<defs>
<clipPath id="clip0_2766_3040">
<rect width="16" height="16" fill="white" transform="translate(12 12)"/>
</clipPath>
</defs>
</svg>
