<svg width="24" height="24" viewBox="0 0 24 24" fill="none" xmlns="http://www.w3.org/2000/svg">
<g clip-path="url(#clip0_2766_3045)">
<path d="M15.3334 8.66667C15.3334 8.84348 15.2631 9.01305 15.1381 9.13807C15.0131 9.2631 14.8435 9.33333 14.6667 9.33333H9.33335C9.15654 9.33333 8.98697 9.2631 8.86195 9.13807C8.73693 9.01305 8.66669 8.84348 8.66669 8.66667C8.66669 8.48986 8.73693 8.32029 8.86195 8.19526C8.98697 8.07024 9.15654 8 9.33335 8H14.6667C14.8435 8 15.0131 8.07024 15.1381 8.19526C15.2631 8.32029 15.3334 8.48986 15.3334 8.66667ZM19.3334 7.33333V16.6667C19.3323 17.5504 18.9808 18.3976 18.3559 19.0225C17.731 19.6474 16.8838 19.9989 16 20H8.00002C7.11629 19.9989 6.26906 19.6474 5.64417 19.0225C5.01928 18.3976 4.66775 17.5504 4.66669 16.6667V7.33333C4.66775 6.4496 5.01928 5.60237 5.64417 4.97748C6.26906 4.35259 7.11629 4.00106 8.00002 4H16C16.8838 4.00106 17.731 4.35259 18.3559 4.97748C18.9808 5.60237 19.3323 6.4496 19.3334 7.33333ZM8.66669 16C8.66669 15.8681 8.62759 15.7393 8.55433 15.6296C8.48108 15.52 8.37696 15.4345 8.25514 15.3841C8.13333 15.3336 7.99928 15.3204 7.86996 15.3461C7.74064 15.3719 7.62185 15.4354 7.52862 15.5286C7.43538 15.6218 7.37189 15.7406 7.34616 15.8699C7.32044 15.9993 7.33364 16.1333 7.3841 16.2551C7.43456 16.3769 7.52001 16.4811 7.62964 16.5543C7.73927 16.6276 7.86817 16.6667 8.00002 16.6667C8.17683 16.6667 8.3464 16.5964 8.47142 16.4714C8.59645 16.3464 8.66669 16.1768 8.66669 16ZM8.66669 13.3333C8.66669 13.2015 8.62759 13.0726 8.55433 12.963C8.48108 12.8533 8.37696 12.7679 8.25514 12.7174C8.13333 12.667 7.99928 12.6538 7.86996 12.6795C7.74064 12.7052 7.62185 12.7687 7.52862 12.8619C7.43538 12.9552 7.37189 13.074 7.34616 13.2033C7.32044 13.3326 7.33364 13.4666 7.3841 13.5885C7.43456 13.7103 7.52001 13.8144 7.62964 13.8876C7.73927 13.9609 7.86817 14 8.00002 14C8.17683 14 8.3464 13.9298 8.47142 13.8047C8.59645 13.6797 8.66669 13.5101 8.66669 13.3333ZM11.3334 16C11.3334 15.8681 11.2943 15.7393 11.221 15.6296C11.1477 15.52 11.0436 15.4345 10.9218 15.3841C10.8 15.3336 10.6659 15.3204 10.5366 15.3461C10.4073 15.3719 10.2885 15.4354 10.1953 15.5286C10.102 15.6218 10.0386 15.7406 10.0128 15.8699C9.98711 15.9993 10.0003 16.1333 10.0508 16.2551C10.1012 16.3769 10.1867 16.4811 10.2963 16.5543C10.4059 16.6276 10.5348 16.6667 10.6667 16.6667C10.8435 16.6667 11.0131 16.5964 11.1381 16.4714C11.2631 16.3464 11.3334 16.1768 11.3334 16ZM11.3334 13.3333C11.3334 13.2015 11.2943 13.0726 11.221 12.963C11.1477 12.8533 11.0436 12.7679 10.9218 12.7174C10.8 12.667 10.6659 12.6538 10.5366 12.6795C10.4073 12.7052 10.2885 12.7687 10.1953 12.8619C10.102 12.9552 10.0386 13.074 10.0128 13.2033C9.98711 13.3326 10.0003 13.4666 10.0508 13.5885C10.1012 13.7103 10.1867 13.8144 10.2963 13.8876C10.4059 13.9609 10.5348 14 10.6667 14C10.8435 14 11.0131 13.9298 11.1381 13.8047C11.2631 13.6797 11.3334 13.5101 11.3334 13.3333ZM16.6667 16C16.6667 15.8232 16.5964 15.6536 16.4714 15.5286C16.3464 15.4036 16.1768 15.3333 16 15.3333H13.3334C13.1565 15.3333 12.987 15.4036 12.8619 15.5286C12.7369 15.6536 12.6667 15.8232 12.6667 16C12.6667 16.1768 12.7369 16.3464 12.8619 16.4714C12.987 16.5964 13.1565 16.6667 13.3334 16.6667H16C16.1768 16.6667 16.3464 16.5964 16.4714 16.4714C16.5964 16.3464 16.6667 16.1768 16.6667 16ZM13.3334 14C13.4652 14 13.5941 13.9609 13.7037 13.8876C13.8134 13.8144 13.8988 13.7103 13.9493 13.5885C13.9997 13.4666 14.0129 13.3326 13.9872 13.2033C13.9615 13.074 13.898 12.9552 13.8048 12.8619C13.7115 12.7687 13.5927 12.7052 13.4634 12.6795C13.3341 12.6538 13.2 12.667 13.0782 12.7174C12.9564 12.7679 12.8523 12.8533 12.779 12.963C12.7058 13.0726 12.6667 13.2015 12.6667 13.3333C12.6667 13.5101 12.7369 13.6797 12.8619 13.8047C12.987 13.9298 13.1565 14 13.3334 14ZM16.6667 13.3333C16.6667 13.2015 16.6276 13.0726 16.5543 12.963C16.4811 12.8533 16.377 12.7679 16.2551 12.7174C16.1333 12.667 15.9993 12.6538 15.87 12.6795C15.7406 12.7052 15.6219 12.7687 15.5286 12.8619C15.4354 12.9552 15.3719 13.074 15.3462 13.2033C15.3204 13.3326 15.3336 13.4666 15.3841 13.5885C15.4346 13.7103 15.52 13.8144 15.6296 13.8876C15.7393 13.9609 15.8682 14 16 14C16.1768 14 16.3464 13.9298 16.4714 13.8047C16.5964 13.6797 16.6667 13.5101 16.6667 13.3333ZM16.6667 8.66667C16.6667 8.13623 16.456 7.62753 16.0809 7.25245C15.7058 6.87738 15.1971 6.66667 14.6667 6.66667H9.33335C8.80292 6.66667 8.29421 6.87738 7.91914 7.25245C7.54407 7.62753 7.33335 8.13623 7.33335 8.66667C7.33335 9.1971 7.54407 9.70581 7.91914 10.0809C8.29421 10.456 8.80292 10.6667 9.33335 10.6667H14.6667C15.1971 10.6667 15.7058 10.456 16.0809 10.0809C16.456 9.70581 16.6667 9.1971 16.6667 8.66667Z" fill="#727A90"/>
</g>
<defs>
<clipPath id="clip0_2766_3045">
<rect width="16" height="16" fill="white" transform="translate(4 4)"/>
</clipPath>
</defs>
</svg>
