<svg width="24" height="24" viewBox="0 0 24 24" fill="none" xmlns="http://www.w3.org/2000/svg">
<g clip-path="url(#clip0_2766_5493)">
<path d="M19.142 6.718C18.9545 6.49296 18.7197 6.31197 18.4544 6.18788C18.189 6.06379 17.8996 5.99964 17.6067 6H6.828L6.8 5.766C6.7427 5.27961 6.50892 4.83115 6.14299 4.50565C5.77706 4.18015 5.30442 4.00023 4.81467 4H4.66667C4.48986 4 4.32029 4.07024 4.19526 4.19526C4.07024 4.32029 4 4.48986 4 4.66667C4 4.84348 4.07024 5.01305 4.19526 5.13807C4.32029 5.2631 4.48986 5.33333 4.66667 5.33333H4.81467C4.97796 5.33335 5.13556 5.3933 5.25758 5.50181C5.3796 5.61032 5.45756 5.75983 5.47667 5.922L6.394 13.722C6.48923 14.5332 6.87899 15.2812 7.48927 15.824C8.09956 16.3668 8.8879 16.6667 9.70467 16.6667H16.6667C16.8435 16.6667 17.013 16.5964 17.1381 16.4714C17.2631 16.3464 17.3333 16.1768 17.3333 16C17.3333 15.8232 17.2631 15.6536 17.1381 15.5286C17.013 15.4036 16.8435 15.3333 16.6667 15.3333H9.70467C9.29204 15.3322 8.88987 15.2034 8.55329 14.9647C8.21671 14.726 7.96221 14.389 7.82467 14H15.7713C16.5529 14 17.3096 13.7255 17.9092 13.2243C18.5089 12.7231 18.9134 12.0271 19.052 11.258L19.5753 8.35533C19.6276 8.06734 19.6158 7.77138 19.5409 7.48843C19.4661 7.20547 19.3299 6.94245 19.142 6.718Z" fill="#727A90"/>
<path d="M8.66658 20.0004C9.40296 20.0004 9.99991 19.4034 9.99991 18.6671C9.99991 17.9307 9.40296 17.3337 8.66658 17.3337C7.9302 17.3337 7.33325 17.9307 7.33325 18.6671C7.33325 19.4034 7.9302 20.0004 8.66658 20.0004Z" fill="#727A90"/>
<path d="M15.3333 20.0004C16.0697 20.0004 16.6667 19.4034 16.6667 18.6671C16.6667 17.9307 16.0697 17.3337 15.3333 17.3337C14.597 17.3337 14 17.9307 14 18.6671C14 19.4034 14.597 20.0004 15.3333 20.0004Z" fill="#374957"/>
</g>
<defs>
<clipPath id="clip0_2766_5493">
<rect width="16" height="16" fill="white" transform="translate(4 4)"/>
</clipPath>
</defs>
</svg>
