<svg width="40" height="40" viewBox="0 0 40 40" fill="none" xmlns="http://www.w3.org/2000/svg">
<g clip-path="url(#clip0_2766_5498)">
<path d="M13.375 12C13.6528 11.959 13.9394 11.9216 14.1815 12.0889C14.3411 12.2186 14.4825 12.3665 14.625 12.5144C14.6813 12.5704 14.7379 12.6263 14.7945 12.682C14.9169 12.8032 15.0383 12.9253 15.1588 13.0484C15.338 13.2315 15.519 13.4125 15.7005 13.5933C16.0058 13.8975 16.3095 14.2032 16.6124 14.5098C16.9123 14.8134 17.2129 15.1163 17.5143 15.4183C17.5331 15.4372 17.5519 15.456 17.5712 15.4753C17.6666 15.5709 17.7619 15.6664 17.8573 15.7619C18.5323 16.438 19.2058 17.1156 19.8783 17.7941C20.531 18.4526 21.1845 19.1103 21.839 19.767C21.8592 19.7872 21.8794 19.8075 21.9002 19.8283C22.0826 20.0114 22.2651 20.1945 22.4475 20.3775C23.6559 21.5898 24.8638 22.8027 26.0691 24.018C26.1026 24.0517 26.136 24.0854 26.1694 24.1191C26.1858 24.1356 26.2022 24.1521 26.219 24.1691C26.3325 24.2835 26.4461 24.3978 26.5597 24.5121C26.7094 24.6627 26.8589 24.8135 27.0084 24.9645C27.0625 25.0191 27.1167 25.0736 27.1709 25.1281C27.2446 25.2022 27.318 25.2764 27.3915 25.3507C27.4126 25.3718 27.4337 25.393 27.4555 25.4148C27.7878 25.7523 28.0134 26.1011 28.0098 26.5879C28.0065 26.9978 27.8949 27.2998 27.6169 27.61C27.2999 27.9173 26.9426 28.0103 26.5155 28.012C26.0414 28.0037 25.7221 27.7663 25.403 27.4383C25.3275 27.3576 25.2546 27.2751 25.1825 27.1914C25.0716 27.0633 24.9573 26.9382 24.8438 26.8125C24.576 26.516 24.576 26.516 24.4551 26.3769C24.3409 26.2458 24.2236 26.1177 24.1064 25.9892C24.0265 25.901 23.9482 25.8115 23.8701 25.7217C23.7997 25.6417 23.728 25.563 23.6562 25.4844C23.549 25.3667 23.4433 25.2481 23.3389 25.1279C23.2685 25.048 23.1968 24.9693 23.125 24.8906C23.0177 24.773 22.912 24.6543 22.8076 24.5342C22.7372 24.4542 22.6655 24.3755 22.5938 24.2969C22.4858 24.1784 22.3792 24.059 22.274 23.9381C22.1633 23.8116 22.0502 23.6872 21.9375 23.5625C21.6697 23.266 21.6697 23.266 21.5488 23.1269C21.4347 22.9958 21.3173 22.8677 21.2002 22.7392C21.1203 22.651 21.0419 22.5615 20.9639 22.4717C20.8673 22.362 20.7684 22.2545 20.6698 22.1466C20.5851 22.0529 20.5026 21.9576 20.421 21.8612C20.3714 21.805 20.3714 21.805 20.2812 21.75C20.2611 21.771 20.2409 21.792 20.2201 21.8136C20.1452 21.8912 20.0699 21.9684 19.9944 22.0454C19.9618 22.0788 19.9293 22.1124 19.8969 22.1461C19.8504 22.1945 19.8034 22.2423 19.7563 22.2901C19.7282 22.3191 19.7001 22.3481 19.6711 22.3779C19.5938 22.4375 19.5938 22.4375 19.5329 22.4313C19.4593 22.4025 19.4208 22.3701 19.365 22.3143C19.3451 22.2946 19.3251 22.2749 19.3045 22.2546C19.2829 22.2327 19.2612 22.2108 19.2389 22.1883C19.2157 22.1652 19.1925 22.1422 19.1686 22.1184C19.0905 22.0407 19.0128 21.9627 18.9351 21.8847C18.8793 21.829 18.8235 21.7734 18.7676 21.7177C18.6315 21.582 18.4957 21.4461 18.3599 21.3101C18.2494 21.1993 18.1388 21.0887 18.0281 20.9781C18.0124 20.9624 17.9966 20.9466 17.9804 20.9304C17.9484 20.8984 17.9163 20.8665 17.8843 20.8345C17.5838 20.5343 17.2836 20.2338 16.9836 19.9332C16.7267 19.6759 16.4696 19.4189 16.2124 19.1621C15.9133 18.8635 15.6144 18.5648 15.3158 18.2659C15.2838 18.2339 15.2519 18.2019 15.2199 18.1699C15.2042 18.1542 15.1885 18.1385 15.1723 18.1222C15.0621 18.012 14.9519 17.9019 14.8416 17.7919C14.6925 17.6431 14.5437 17.4941 14.3951 17.3449C14.3407 17.2904 14.2863 17.236 14.2318 17.1817C13.3859 16.3388 12.8756 15.492 12.8633 14.2676C12.8712 13.4791 13.0752 12.724 13.375 12Z" fill="#727A90"/>
<path d="M24.625 12C24.7351 12.0518 24.8062 12.1115 24.8921 12.1985C24.9185 12.2251 24.9449 12.2517 24.972 12.2791C24.9993 12.3068 25.0266 12.3346 25.0547 12.3633C25.0824 12.3913 25.1102 12.4194 25.1388 12.4482C25.2073 12.5174 25.2756 12.5868 25.3438 12.6562C25.3017 12.75 25.255 12.8152 25.1824 12.8876C25.1621 12.9081 25.1417 12.9285 25.1208 12.9495C25.0985 12.9716 25.0762 12.9936 25.0533 13.0163C25.0298 13.0398 25.0063 13.0633 24.9821 13.0875C24.9045 13.1651 24.8266 13.2425 24.7488 13.3198C24.6949 13.3736 24.641 13.4274 24.5872 13.4811C24.4454 13.6227 24.3035 13.764 24.1615 13.9053C24.0167 14.0495 23.872 14.1939 23.7273 14.3383C23.4434 14.6215 23.1593 14.9046 22.875 15.1875C22.9229 15.2882 22.9732 15.3555 23.053 15.4341C23.0753 15.4562 23.0977 15.4784 23.1207 15.5012C23.1441 15.524 23.1674 15.5468 23.1914 15.5703C23.215 15.5936 23.2385 15.6169 23.2628 15.6409C23.3209 15.6982 23.3791 15.7554 23.4375 15.8125C23.5971 15.6789 23.7466 15.539 23.8934 15.3914C23.916 15.3689 23.9385 15.3463 23.9618 15.323C24.0358 15.249 24.1096 15.1749 24.1835 15.1008C24.235 15.0492 24.2865 14.9977 24.3381 14.9461C24.4732 14.8108 24.6082 14.6755 24.7433 14.5401C24.8813 14.4018 25.0193 14.2636 25.1574 14.1254C25.4279 13.8545 25.6984 13.5835 25.9688 13.3125C26.0038 13.3424 26.0389 13.3723 26.0739 13.4022C26.1032 13.4272 26.1032 13.4272 26.133 13.4527C26.195 13.5065 26.2537 13.5626 26.3114 13.6208C26.3421 13.6517 26.3421 13.6517 26.3734 13.6831C26.3939 13.7039 26.4144 13.7247 26.4355 13.7461C26.4569 13.7676 26.4783 13.7891 26.5003 13.8113C26.5524 13.8637 26.6043 13.9162 26.6562 13.9688C26.6142 14.0625 26.5675 14.1277 26.4949 14.2001C26.4746 14.2206 26.4542 14.241 26.4333 14.262C26.411 14.2841 26.3887 14.3061 26.3658 14.3288C26.3423 14.3523 26.3188 14.3758 26.2946 14.4C26.217 14.4776 26.1391 14.555 26.0613 14.6323C26.0074 14.6861 25.9535 14.7399 25.8997 14.7936C25.7579 14.9352 25.616 15.0765 25.474 15.2178C25.3292 15.362 25.1845 15.5064 25.0398 15.6508C24.7559 15.934 24.4718 16.2171 24.1875 16.5C24.2354 16.6007 24.2857 16.668 24.3655 16.7466C24.3878 16.7687 24.4102 16.7909 24.4332 16.8137C24.4566 16.8365 24.4799 16.8593 24.5039 16.8828C24.5275 16.9061 24.551 16.9294 24.5753 16.9534C24.6334 17.0107 24.6916 17.0679 24.75 17.125C24.8438 17.0829 24.909 17.0363 24.9814 16.9636C25.0018 16.9433 25.0222 16.923 25.0433 16.902C25.0653 16.8797 25.0874 16.8575 25.1101 16.8345C25.1336 16.811 25.1571 16.7876 25.1813 16.7634C25.2588 16.6857 25.3362 16.6079 25.4136 16.53C25.4673 16.4762 25.5211 16.4223 25.5749 16.3685C25.7164 16.2267 25.8577 16.0847 25.999 15.9428C26.1432 15.7979 26.2876 15.6532 26.432 15.5085C26.7153 15.2246 26.9983 14.9405 27.2812 14.6562C27.3914 14.7081 27.4625 14.7677 27.5483 14.8547C27.5747 14.8813 27.6011 14.9079 27.6283 14.9353C27.6556 14.9631 27.6828 14.9909 27.7109 15.0195C27.7387 15.0476 27.7664 15.0756 27.795 15.1045C27.8635 15.1737 27.9318 15.243 28 15.3125C27.8411 15.5043 27.6684 15.6804 27.4926 15.8567C27.4605 15.889 27.4284 15.9213 27.3963 15.9536C27.2915 16.059 27.1866 16.1643 27.0817 16.2695C27.0454 16.306 27.009 16.3424 26.9727 16.3788C26.8021 16.55 26.6315 16.7211 26.4607 16.8922C26.2644 17.0888 26.0683 17.2857 25.8724 17.4828C25.7205 17.6357 25.5683 17.7884 25.4159 17.9409C25.3251 18.0317 25.2345 18.1227 25.1441 18.2138C25.059 18.2997 24.9735 18.3852 24.8879 18.4706C24.8567 18.5017 24.8257 18.5329 24.7948 18.5643C24.2633 19.1028 23.6743 19.2892 22.9453 19.3956C22.8716 19.4047 22.8716 19.4047 22.7904 19.4343C22.6768 19.4378 22.6655 19.432 22.5841 19.3621C22.5457 19.3251 22.5079 19.2875 22.4706 19.2495C22.4394 19.2189 22.4394 19.2189 22.4076 19.1877C22.3389 19.1202 22.2711 19.0518 22.2032 18.9834C22.1558 18.9362 22.1084 18.889 22.0609 18.8419C21.9615 18.743 21.8625 18.6436 21.7637 18.544C21.6371 18.4163 21.5094 18.2896 21.3814 18.1633C21.2832 18.0661 21.1856 17.9683 21.0881 17.8704C21.0413 17.8234 20.9942 17.7767 20.947 17.7301C20.8811 17.665 20.816 17.5991 20.751 17.5329C20.7314 17.5138 20.7117 17.4946 20.6914 17.4749C20.6408 17.4224 20.5985 17.3759 20.5625 17.3125C20.5656 17.1947 20.5656 17.1947 20.5938 17.0938C20.5977 17.0653 20.6017 17.0368 20.6058 17.0075C20.6984 16.3563 20.8457 15.8215 21.307 15.3309C21.3258 15.3109 21.3445 15.2908 21.3639 15.2702C21.6448 14.973 21.9357 14.6853 22.2253 14.3966C22.31 14.312 22.3946 14.2274 22.4793 14.1428C22.6388 13.9834 22.7984 13.8241 22.958 13.6648C23.14 13.4831 23.322 13.3013 23.504 13.1195C23.8775 12.7462 24.2512 12.3731 24.625 12Z" fill="#727A90"/>
<path d="M16.875 21.0938C17.0033 21.1528 17.091 21.2389 17.1892 21.3383C17.2171 21.3662 17.2171 21.3662 17.2456 21.3947C17.307 21.4561 17.3681 21.5177 17.4292 21.5793C17.4718 21.622 17.5143 21.6647 17.5569 21.7073C17.6688 21.8195 17.7806 21.9318 17.8923 22.0442C18.0063 22.1589 18.1206 22.2734 18.2348 22.3879C18.4588 22.6126 18.6826 22.8375 18.9063 23.0625C18.8555 23.1901 18.7641 23.2759 18.6685 23.3709C18.6504 23.3891 18.6323 23.4074 18.6136 23.4261C18.5529 23.4872 18.4919 23.5481 18.4309 23.6089C18.3873 23.6527 18.3438 23.6964 18.3002 23.7402C18.1817 23.859 18.063 23.9777 17.9443 24.0964C17.8452 24.1955 17.7461 24.2947 17.6471 24.3939C17.4133 24.628 17.1793 24.862 16.9453 25.0959C16.704 25.3369 16.4631 25.5782 16.2223 25.8197C16.0154 26.0271 15.8084 26.2344 15.6012 26.4415C15.4775 26.5651 15.3539 26.6888 15.2304 26.8127C15.1142 26.9293 14.9978 27.0456 14.8812 27.1618C14.8385 27.2044 14.796 27.2471 14.7535 27.2898C14.2508 27.7953 14.2508 27.7953 13.9297 27.916C13.8927 27.9303 13.8927 27.9303 13.855 27.9449C13.5008 28.0593 13.0891 28.0286 12.7564 27.8627C12.679 27.8175 12.605 27.7697 12.5313 27.7188C12.5036 27.7007 12.4758 27.6827 12.4473 27.6641C12.1726 27.3968 11.999 27.0488 11.9831 26.6649C11.9782 26.1209 12.2042 25.7602 12.5759 25.3816C12.6557 25.3012 12.7361 25.2214 12.8165 25.1416C12.8609 25.0973 12.9053 25.0529 12.9496 25.0085C13.0692 24.8889 13.1891 24.7695 13.3091 24.6502C13.4347 24.5252 13.56 24.3999 13.6854 24.2746C13.9225 24.0378 14.1598 23.8012 14.3973 23.5648C14.6677 23.2954 14.9379 23.0257 15.208 22.756C15.7634 22.2016 16.3191 21.6476 16.875 21.0938Z" fill="#686F83"/>
</g>
<defs>
<clipPath id="clip0_2766_5498">
<rect width="16" height="16" fill="white" transform="translate(12 12)"/>
</clipPath>
</defs>
</svg>
