<svg width="24" height="24" viewBox="0 0 24 24" fill="none" xmlns="http://www.w3.org/2000/svg">
<g clip-path="url(#clip0_2766_12183)">
<path d="M5.33334 15.6667H7C7.73637 15.6667 8.33334 16.2636 8.33334 17V18.6667C8.33334 19.4031 7.73637 20 7 20H5.33334C4.59697 20 4 19.4031 4 18.6667V17C4 16.2636 4.59697 15.6667 5.33334 15.6667Z" fill="#727A90"/>
<path d="M19.412 15.8946C19.192 15.7456 18.9323 15.6662 18.6666 15.6666H17C16.2636 15.6666 15.6666 16.2635 15.6666 17V18.6666C15.6666 19.403 16.2636 20 17 20H18.6666C19.403 20 20 19.403 20 18.6666V17C19.9999 16.5567 19.7795 16.1424 19.412 15.8946Z" fill="#727A90"/>
<path d="M5.33334 9.83336H7C7.73637 9.83336 8.33334 10.4303 8.33334 11.1667V12.8334C8.33334 13.5697 7.73637 14.1667 7 14.1667H5.33334C4.59697 14.1667 4 13.5697 4 12.8334V11.1667C4 10.4303 4.59697 9.83336 5.33334 9.83336Z" fill="#727A90"/>
<path d="M19.412 10.0613C19.192 9.91231 18.9323 9.83288 18.6666 9.83331H17C16.2636 9.83331 15.6666 10.4303 15.6666 11.1667V12.8333C15.6666 13.5697 16.2636 14.1667 17 14.1667H18.6666C19.403 14.1667 20 13.5697 20 12.8333V11.1667C19.9999 10.7233 19.7795 10.3091 19.412 10.0613Z" fill="#727A90"/>
<path d="M5.33334 4H7C7.73637 4 8.33334 4.59697 8.33334 5.33334V7C8.33334 7.73637 7.73637 8.33334 7 8.33334H5.33334C4.59697 8.33334 4 7.73637 4 7V5.33334C4 4.59697 4.59697 4 5.33334 4Z" fill="#727A90"/>
<path d="M13.5787 15.8946C13.3587 15.7456 13.099 15.6662 12.8333 15.6666H11.1667C10.4303 15.6666 9.83331 16.2635 9.83331 17V18.6666C9.83331 19.403 10.4303 20 11.1667 20H12.8333C13.5697 20 14.1667 19.403 14.1667 18.6666V17C14.1666 16.5567 13.9462 16.1424 13.5787 15.8946Z" fill="#727A90"/>
<path d="M13.5787 10.0613C13.3587 9.91231 13.099 9.83288 12.8333 9.83331H11.1667C10.4303 9.83331 9.83331 10.4303 9.83331 11.1667V12.8333C9.83331 13.5697 10.4303 14.1667 11.1667 14.1667H12.8333C13.5697 14.1667 14.1667 13.5697 14.1667 12.8333V11.1667C14.1666 10.7233 13.9462 10.3091 13.5787 10.0613Z" fill="#727A90"/>
<path d="M13.5787 4.22796C13.3587 4.07896 13.099 3.99952 12.8333 3.99996H11.1667C10.4303 3.99996 9.83331 4.59692 9.83331 5.3333V6.99996C9.83331 7.73633 10.4303 8.3333 11.1667 8.3333H12.8333C13.5697 8.3333 14.1667 7.73633 14.1667 6.99996V5.3333C14.1666 4.89002 13.9462 4.47574 13.5787 4.22796Z" fill="#727A90"/>
<path d="M19.772 4.588C19.5242 4.22044 19.1099 4.00006 18.6666 4H17C16.2636 4 15.6666 4.59697 15.6666 5.33334V7C15.6666 7.73637 16.2636 8.33334 17 8.33334H18.6666C19.403 8.33334 20 7.73637 20 7V5.33334C20.0004 5.06766 19.921 4.80797 19.772 4.588Z" fill="#727A90"/>
</g>
<defs>
<clipPath id="clip0_2766_12183">
<rect width="16" height="16" fill="white" transform="translate(4 4)"/>
</clipPath>
</defs>
</svg>
