<svg width="40" height="40" viewBox="0 0 40 40" fill="none" xmlns="http://www.w3.org/2000/svg">
<path d="M26 14.6667H23.9334C23.6144 13.1157 22.2501 12.002 20.6667 12H19.3333C17.7499 12.002 16.3856 13.1157 16.0667 14.6667H14C13.6318 14.6667 13.3334 14.9651 13.3334 15.3333C13.3334 15.7015 13.6318 16 14 16H14.6667V24.6667C14.6689 26.5067 16.16 27.9978 18 28H22C23.8401 27.9978 25.3312 26.5067 25.3334 24.6667V16H26C26.3682 16 26.6667 15.7015 26.6667 15.3333C26.6667 14.9652 26.3682 14.6667 26 14.6667ZM19.3334 23.3333C19.3334 23.7015 19.0349 24 18.6667 24C18.2985 24 18 23.7015 18 23.3333V19.3333C18 18.9652 18.2985 18.6667 18.6667 18.6667C19.0349 18.6667 19.3333 18.9652 19.3333 19.3333V23.3333H19.3334ZM22 23.3333C22 23.7015 21.7016 24 21.3334 24C20.9652 24 20.6667 23.7015 20.6667 23.3333V19.3333C20.6667 18.9652 20.9652 18.6667 21.3334 18.6667C21.7016 18.6667 22 18.9652 22 19.3333V23.3333ZM17.4474 14.6667C17.7309 13.8682 18.4861 13.3343 19.3334 13.3333H20.6667C21.514 13.3343 22.2692 13.8682 22.5527 14.6667H17.4474Z" fill="#727A90"/>
</svg>
