<svg width="40" height="40" viewBox="0 0 40 40" fill="none" xmlns="http://www.w3.org/2000/svg">
<path d="M21.3334 16.6667V12.3067C21.9501 12.5396 22.5103 12.9009 22.9768 13.3667L25.2994 15.6907C25.7658 16.1566 26.1274 16.7166 26.3601 17.3333H22.0001C21.8233 17.3333 21.6537 17.2631 21.5287 17.1381C21.4037 17.013 21.3334 16.8435 21.3334 16.6667ZM26.6668 18.99V24.6667C26.6657 25.5504 26.3142 26.3976 25.6893 27.0225C25.0644 27.6474 24.2172 27.9989 23.3334 28H16.6668C15.783 27.9989 14.9358 27.6474 14.3109 27.0225C13.686 26.3976 13.3345 25.5504 13.3334 24.6667V15.3333C13.3345 14.4496 13.686 13.6024 14.3109 12.9775C14.9358 12.3526 15.783 12.0011 16.6668 12H19.6768C19.7854 12 19.8928 12.0087 20.0001 12.016V16.6667C20.0001 17.1971 20.2108 17.7058 20.5859 18.0809C20.961 18.456 21.4697 18.6667 22.0001 18.6667H26.6508C26.6581 18.774 26.6668 18.8813 26.6668 18.99ZM21.3334 24.6667C21.3334 24.4899 21.2632 24.3203 21.1382 24.1953C21.0131 24.0702 20.8436 24 20.6668 24H17.3334C17.1566 24 16.9871 24.0702 16.862 24.1953C16.737 24.3203 16.6668 24.4899 16.6668 24.6667C16.6668 24.8435 16.737 25.013 16.862 25.1381C16.9871 25.2631 17.1566 25.3333 17.3334 25.3333H20.6668C20.8436 25.3333 21.0131 25.2631 21.1382 25.1381C21.2632 25.013 21.3334 24.8435 21.3334 24.6667ZM23.3334 22C23.3334 21.8232 23.2632 21.6536 23.1382 21.5286C23.0131 21.4036 22.8436 21.3333 22.6668 21.3333H17.3334C17.1566 21.3333 16.9871 21.4036 16.862 21.5286C16.737 21.6536 16.6668 21.8232 16.6668 22C16.6668 22.1768 16.737 22.3464 16.862 22.4714C16.9871 22.5964 17.1566 22.6667 17.3334 22.6667H22.6668C22.8436 22.6667 23.0131 22.5964 23.1382 22.4714C23.2632 22.3464 23.3334 22.1768 23.3334 22Z" fill="#727A90"/>
</svg>
