<svg width="24" height="24" viewBox="0 0 24 24" fill="none" xmlns="http://www.w3.org/2000/svg">
<g clip-path="url(#clip0_2766_12173)">
<path d="M12 13.9945C10.8954 13.9945 10 14.89 10 15.9945V19.9945H14V15.9945C14 14.89 13.1046 13.9945 12 13.9945Z" fill="#727A90"/>
<path d="M15.3333 15.9948V19.9948H18C19.1046 19.9948 20 19.0994 20 17.9948V11.9142C20.0002 11.5678 19.8656 11.235 19.6247 10.9862L13.9593 4.86146C12.9597 3.7799 11.2726 3.71349 10.191 4.71312C10.1397 4.76062 10.0902 4.81009 10.0427 4.86146L4.38734 10.9842C4.13916 11.234 3.99991 11.572 4 11.9242V17.9948C4 19.0994 4.89544 19.9948 6 19.9948H8.66666V15.9948C8.67912 14.1769 10.1468 12.6924 11.9189 12.6497C13.7503 12.6055 15.3194 14.1153 15.3333 15.9948Z" fill="#727A90"/>
<path d="M12 13.9945C10.8954 13.9945 10 14.89 10 15.9945V19.9945H14V15.9945C14 14.89 13.1046 13.9945 12 13.9945Z" fill="#727A90"/>
</g>
<defs>
<clipPath id="clip0_2766_12173">
<rect width="16" height="16" fill="white" transform="translate(4 4)"/>
</clipPath>
</defs>
</svg>
