<svg width="40" height="40" viewBox="0 0 40 40" fill="none" xmlns="http://www.w3.org/2000/svg">
<g clip-path="url(#clip0_2766_3059)">
<path d="M26.9901 19.3169L20.0001 23.5116L13.0101 19.3169C12.8585 19.226 12.6769 19.1989 12.5054 19.2418C12.3339 19.2847 12.1864 19.394 12.0954 19.5456C12.0045 19.6972 11.9775 19.8788 12.0203 20.0503C12.0632 20.2218 12.1725 20.3693 12.3241 20.4603L19.6574 24.8603C19.7611 24.9226 19.8798 24.9555 20.0008 24.9555C20.1217 24.9555 20.2404 24.9226 20.3441 24.8603L27.6774 20.4603C27.8291 20.3693 27.9383 20.2218 27.9812 20.0503C28.0241 19.8788 27.9971 19.6972 27.9061 19.5456C27.8151 19.394 27.6677 19.2847 27.4961 19.2418C27.3246 19.1989 27.1431 19.226 26.9914 19.3169H26.9901Z" fill="#727A90"/>
<path d="M26.9902 22.3619L20.0002 26.5559L13.0102 22.3619C12.9351 22.3168 12.8519 22.287 12.7653 22.2741C12.6787 22.2612 12.5904 22.2655 12.5055 22.2868C12.4205 22.308 12.3406 22.3457 12.2703 22.3979C12.1999 22.45 12.1405 22.5154 12.0955 22.5905C12.0505 22.6656 12.0206 22.7488 12.0077 22.8354C11.9949 22.922 11.9992 23.0103 12.0204 23.0952C12.0633 23.2667 12.1725 23.4142 12.3242 23.5052L19.6575 27.9052C19.7612 27.9675 19.8799 28.0004 20.0008 28.0004C20.1218 28.0004 20.2405 27.9675 20.3442 27.9052L27.6775 23.5052C27.8291 23.4142 27.9384 23.2667 27.9813 23.0952C28.0241 22.9237 27.9971 22.7421 27.9062 22.5905C27.8152 22.4389 27.6677 22.3296 27.4962 22.2868C27.3247 22.2439 27.1431 22.2709 26.9915 22.3619H26.9902Z" fill="#727A90"/>
<path d="M12.3232 17.5715L18.9792 21.5655C19.2874 21.7509 19.6403 21.8489 19.9999 21.8489C20.3596 21.8489 20.7124 21.7509 21.0206 21.5655L27.6766 17.5715C27.7751 17.5123 27.8567 17.4285 27.9133 17.3284C27.9699 17.2283 27.9997 17.1152 27.9997 17.0002C27.9997 16.8852 27.9699 16.7721 27.9133 16.672C27.8567 16.5719 27.7751 16.4881 27.6766 16.4289L21.0206 12.4349C20.7123 12.2497 20.3595 12.1519 19.9999 12.1519C19.6403 12.1519 19.2875 12.2497 18.9792 12.4349L12.3232 16.4289C12.2247 16.4881 12.1431 16.5719 12.0865 16.672C12.0299 16.7721 12.0001 16.8852 12.0001 17.0002C12.0001 17.1152 12.0299 17.2283 12.0865 17.3284C12.1431 17.4285 12.2247 17.5123 12.3232 17.5715Z" fill="#727A90"/>
</g>
<defs>
<clipPath id="clip0_2766_3059">
<rect width="16" height="16" fill="white" transform="translate(12 12)"/>
</clipPath>
</defs>
</svg>
