<svg width="40" height="40" viewBox="0 0 40 40" fill="none" xmlns="http://www.w3.org/2000/svg">
<g clip-path="url(#clip0_2766_3048)">
<path d="M24.6667 12H15.3333C14.4493 12 13.6014 12.3512 12.9763 12.9763C12.3512 13.6014 12 14.4493 12 15.3333V15.3333C12 15.8638 12.2107 16.3725 12.5858 16.7475C12.9609 17.1226 13.4696 17.3333 14 17.3333H26C26.507 17.3395 26.9971 17.151 27.3692 16.8065C27.7413 16.4621 27.9671 15.988 28 15.482C28.0196 15.032 27.9479 14.5827 27.7893 14.1612C27.6306 13.7397 27.3882 13.3547 27.0768 13.0293C26.7653 12.704 26.3912 12.445 25.977 12.2681C25.5628 12.0912 25.1171 12 24.6667 12V12Z" fill="#727A90"/>
<path d="M26.6666 18.6667H13.3332C13.1564 18.6667 12.9869 18.737 12.8618 18.862C12.7368 18.987 12.6666 19.1566 12.6666 19.3334V24.6667C12.6676 25.5505 13.0192 26.3977 13.644 27.0226C14.2689 27.6475 15.1162 27.999 15.9999 28.0001H23.9999C24.8836 27.999 25.7309 27.6475 26.3558 27.0226C26.9806 26.3977 27.3322 25.5505 27.3332 24.6667V19.3334C27.3332 19.1566 27.263 18.987 27.138 18.862C27.0129 18.737 26.8434 18.6667 26.6666 18.6667ZM21.9999 22.0001H17.9999C17.8231 22.0001 17.6535 21.9298 17.5285 21.8048C17.4035 21.6798 17.3332 21.5102 17.3332 21.3334C17.3332 21.1566 17.4035 20.987 17.5285 20.862C17.6535 20.737 17.8231 20.6667 17.9999 20.6667H21.9999C22.1767 20.6667 22.3463 20.737 22.4713 20.862C22.5963 20.987 22.6666 21.1566 22.6666 21.3334C22.6666 21.5102 22.5963 21.6798 22.4713 21.8048C22.3463 21.9298 22.1767 22.0001 21.9999 22.0001Z" fill="#727A90"/>
</g>
<defs>
<clipPath id="clip0_2766_3048">
<rect width="16" height="16" fill="white" transform="translate(12 12)"/>
</clipPath>
</defs>
</svg>
