<svg width="40" height="40" viewBox="0 0 40 40" fill="none" xmlns="http://www.w3.org/2000/svg">
<g clip-path="url(#clip0_2766_5504)">
<path d="M26.8 13.442C26.42 13.1249 25.9741 12.8964 25.4947 12.7731C25.0153 12.6499 24.5145 12.6349 24.0287 12.7293L22.8527 13.0173C22.239 13.1298 21.6841 13.4539 21.2847 13.9332C20.8853 14.4125 20.6666 15.0167 20.6667 15.6406V25.952C20.2246 26.0167 19.7754 26.0167 19.3333 25.952V15.6406C19.3355 15.0225 19.1219 14.4229 18.7293 13.9455C18.3366 13.468 17.7896 13.1425 17.1827 13.0253L15.9333 12.7213C15.4528 12.6334 14.9588 12.6521 14.4863 12.7763C14.0137 12.9004 13.5743 13.1269 13.199 13.4398C12.8238 13.7526 12.5219 14.144 12.3147 14.5865C12.1075 15.0289 12 15.5114 12 16V23.1953C12 23.9758 12.274 24.7316 12.7741 25.3309C13.2742 25.9302 13.9687 26.3349 14.7367 26.4746L18.9273 27.2366C19.6366 27.3655 20.3634 27.3655 21.0727 27.2366L25.2667 26.4746C26.034 26.3342 26.7278 25.9292 27.2272 25.33C27.7266 24.7308 28.0001 23.9754 28 23.1953V16C28.0003 15.5116 27.8929 15.0292 27.6855 14.587C27.4781 14.1449 27.1758 13.7539 26.8 13.442Z" fill="#727A90"/>
</g>
<defs>
<clipPath id="clip0_2766_5504">
<rect width="16" height="16" fill="white" transform="translate(12 12)"/>
</clipPath>
</defs>
</svg>
