<svg width="24" height="24" viewBox="0 0 24 24" fill="none" xmlns="http://www.w3.org/2000/svg">
<g clip-path="url(#clip0_2766_6456)">
<path d="M5.07121 16C5.62265 16.9571 6.84556 17.2859 7.80262 16.7344C7.80328 16.7341 7.8039 16.7337 7.80456 16.7333L8.10121 16.562C8.66121 17.0411 9.3049 17.4127 9.99987 17.658V18C9.99987 19.1046 10.8953 20 11.9999 20C13.1044 20 13.9999 19.1046 13.9999 18V17.658C14.6949 17.4123 15.3387 17.0403 15.8985 16.5607L16.1965 16.7327C17.1538 17.2849 18.3776 16.9566 18.9299 15.9993C19.4822 15.042 19.1538 13.8182 18.1965 13.266L17.9005 13.0953C18.0338 12.3703 18.0338 11.627 17.9005 10.902L18.1965 10.7313C19.1538 10.179 19.4822 8.95528 18.9299 7.99797C18.3776 7.04069 17.1538 6.71234 16.1965 7.26463L15.8999 7.43597C15.3393 6.95744 14.6952 6.58656 13.9999 6.342V6C13.9999 4.89544 13.1044 4 11.9999 4C10.8953 4 9.99987 4.89544 9.99987 6V6.342C9.30481 6.58772 8.66109 6.95972 8.10121 7.43934L7.80321 7.26669C6.8459 6.71438 5.62215 7.04272 5.06987 8C4.51759 8.95728 4.8459 10.1811 5.80321 10.7333L6.09921 10.904C5.96596 11.629 5.96596 12.3723 6.09921 13.0973L5.80321 13.268C4.84856 13.8217 4.52131 15.0431 5.07121 16ZM11.9999 9.33334C13.4726 9.33334 14.6665 10.5273 14.6665 12C14.6665 13.4727 13.4726 14.6667 11.9999 14.6667C10.5271 14.6667 9.33321 13.4727 9.33321 12C9.33321 10.5273 10.5271 9.33334 11.9999 9.33334Z" fill="#727A90"/>
</g>
<defs>
<clipPath id="clip0_2766_6456">
<rect width="16" height="16" fill="white" transform="translate(4 4)"/>
</clipPath>
</defs>
</svg>
