<svg width="24" height="24" viewBox="0 0 24 24" fill="none" xmlns="http://www.w3.org/2000/svg">
<g clip-path="url(#clip0_2766_3011)">
<path d="M4.39133 16.1599C4.19213 16.5665 4.09971 17.017 4.12279 17.4692C4.14587 17.9213 4.28369 18.3602 4.52325 18.7443C4.76282 19.1285 5.09624 19.4453 5.49211 19.665C5.88798 19.8846 6.33326 19.9999 6.786 19.9999H17.2133C17.6661 20 18.1115 19.8848 18.5074 19.6652C18.9034 19.4456 19.2369 19.1288 19.4766 18.7446C19.7162 18.3604 19.8541 17.9216 19.8772 17.4694C19.9003 17.0172 19.8079 16.5665 19.6087 16.1599L19.204 15.3333H4.796L4.39133 16.1599Z" fill="#727A90"/>
<path d="M16.918 10.6667H7.08201L5.44934 14.0001H18.5507L16.918 10.6667Z" fill="#727A90"/>
<path d="M14.3953 5.51649C14.1759 5.06831 13.8351 4.6907 13.4117 4.42659C12.9883 4.16248 12.4993 4.02246 12.0003 4.02246C11.5013 4.02246 11.0123 4.16248 10.5889 4.42659C10.1656 4.6907 9.82477 5.06831 9.60534 5.51649L7.73334 9.33315H16.2667L14.3953 5.51649Z" fill="#727A90"/>
</g>
<defs>
<clipPath id="clip0_2766_3011">
<rect width="16" height="16" fill="white" transform="translate(4 4)"/>
</clipPath>
</defs>
</svg>
