<svg width="40" height="40" viewBox="0 0 40 40" fill="none" xmlns="http://www.w3.org/2000/svg">
<g clip-path="url(#clip0_2766_3025)">
<path d="M12.8846 20.267L15.2579 22.0003L14.3566 24.7916C14.2109 25.2246 14.209 25.693 14.3513 26.127C14.4935 26.5611 14.7722 26.9375 15.1459 27.2003C15.5131 27.4715 15.9581 27.6168 16.4147 27.6145C16.8712 27.6122 17.3147 27.4625 17.6792 27.1876L19.9999 25.4796L22.3212 27.1856C22.6878 27.4553 23.1304 27.6017 23.5855 27.6039C24.0405 27.6062 24.4846 27.464 24.8537 27.198C25.2229 26.9319 25.4982 26.5557 25.6401 26.1233C25.7819 25.6909 25.783 25.2247 25.6432 24.7916L24.7419 22.0003L27.1152 20.267C27.4813 19.9993 27.7535 19.6228 27.8928 19.1912C28.0321 18.7596 28.0315 18.2951 27.891 17.8639C27.7505 17.4327 27.4774 17.0569 27.1106 16.7902C26.7438 16.5236 26.3021 16.3796 25.8486 16.379H22.9332L22.0486 13.6216C21.9094 13.1876 21.6361 12.809 21.2679 12.5403C20.8997 12.2717 20.4557 12.127 19.9999 12.127C19.5441 12.127 19.1001 12.2717 18.7319 12.5403C18.3637 12.809 18.0903 13.1876 17.9512 13.6216L17.0666 16.379H14.1539C13.7004 16.3796 13.2587 16.5236 12.8919 16.7902C12.5251 17.0569 12.2519 17.4327 12.1114 17.8639C11.971 18.2951 11.9703 18.7596 12.1097 19.1912C12.249 19.6228 12.5211 19.9993 12.8872 20.267H12.8846Z" fill="#727A90"/>
</g>
<defs>
<clipPath id="clip0_2766_3025">
<rect width="16" height="16" fill="white" transform="translate(12 12)"/>
</clipPath>
</defs>
</svg>
