<svg width="40" height="40" viewBox="0 0 40 40" fill="none" xmlns="http://www.w3.org/2000/svg">
<g clip-path="url(#clip0_2766_12166)">
<path d="M20.6666 27.9994C19.606 27.9984 18.5892 27.5766 17.8393 26.8267C17.0894 26.0768 16.6676 25.06 16.6666 23.9994C16.6666 22.9594 17.4666 21.3028 19.0346 19.0741C19.2207 18.8148 19.466 18.6035 19.75 18.4578C20.034 18.312 20.3487 18.236 20.6679 18.236C20.9871 18.236 21.3018 18.312 21.5858 18.4578C21.8698 18.6035 22.1151 18.8148 22.3012 19.0741C23.8699 21.3028 24.6666 22.9594 24.6666 23.9994C24.6655 25.06 24.2437 26.0768 23.4938 26.8267C22.7439 27.5766 21.7271 27.9984 20.6666 27.9994Z" fill="#727A90"/>
<path d="M15.3333 19.3333C14.4496 19.3323 13.6024 18.9807 12.9775 18.3558C12.3526 17.7309 12.0011 16.8837 12 16C12 15.16 12.5613 14.0967 13.716 12.7487C13.9163 12.5158 14.1645 12.329 14.4436 12.2009C14.7227 12.0728 15.0262 12.0065 15.3333 12.0065C15.6405 12.0065 15.9439 12.0728 16.2231 12.2009C16.5022 12.329 16.7504 12.5158 16.9507 12.7487C18.1053 14.0953 18.6667 15.1587 18.6667 16C18.6656 16.8837 18.3141 17.7309 17.6892 18.3558C17.0643 18.9807 16.2171 19.3323 15.3333 19.3333Z" fill="#727A90"/>
<path d="M25 18.6427C24.2046 18.6418 23.4421 18.3255 22.8797 17.7631C22.3172 17.2007 22.0009 16.4381 22 15.6427C22 14.9154 22.4667 13.9721 23.4307 12.7587C23.6193 12.524 23.8583 12.3345 24.1299 12.2044C24.4015 12.0742 24.6988 12.0066 25 12.0066C25.3012 12.0066 25.5985 12.0742 25.8701 12.2044C26.1417 12.3345 26.3807 12.524 26.5693 12.7587C27.5333 13.9721 28 14.9154 28 15.6427C27.9991 16.4381 27.6828 17.2007 27.1203 17.7631C26.5579 18.3255 25.7954 18.6418 25 18.6427Z" fill="#727A90"/>
</g>
<defs>
<clipPath id="clip0_2766_12166">
<rect width="16" height="16" fill="white" transform="translate(12 12)"/>
</clipPath>
</defs>
</svg>
